<?xml version="1.0" encoding="UTF-8" standalone="no"?><svg xmlns="http://www.w3.org/2000/svg" xmlns:xlink="http://www.w3.org/1999/xlink" contentStyleType="text/css" height="1295px" preserveAspectRatio="none" style="width:845px;height:1295px;background:#FFFFFF;" version="1.1" viewBox="0 0 845 1295" width="845px" zoomAndPan="magnify"><defs/><g><ellipse cx="682" cy="16" fill="#222222" rx="10" ry="10" style="stroke:none;stroke-width:1.0;"/><g id="Idle"><rect fill="#F1F1F1" height="50" rx="12.5" ry="12.5" style="stroke:#181818;stroke-width:0.5;" width="50" x="657" y="87"/><line style="stroke:#181818;stroke-width:0.5;" x1="657" x2="707" y1="114.6094" y2="114.6094"/><text fill="#000000" font-family="sans-serif" font-size="14" lengthAdjust="spacing" textLength="22" x="671" y="106.5332">Idle</text></g><g id="isPowerOff"><rect fill="#F1F1F1" height="50" rx="12.5" ry="12.5" style="stroke:#181818;stroke-width:0.5;" width="88" x="638" y="215"/><line style="stroke:#181818;stroke-width:0.5;" x1="638" x2="726" y1="242.6094" y2="242.6094"/><text fill="#000000" font-family="sans-serif" font-size="14" lengthAdjust="spacing" textLength="68" x="648" y="234.5332">isPowerOff</text></g><g id="WaitPowerOn"><rect fill="#F1F1F1" height="50" rx="12.5" ry="12.5" style="stroke:#181818;stroke-width:0.5;" width="106" x="552" y="343"/><line style="stroke:#181818;stroke-width:0.5;" x1="552" x2="658" y1="370.6094" y2="370.6094"/><text fill="#000000" font-family="sans-serif" font-size="14" lengthAdjust="spacing" textLength="86" x="562" y="362.5332">WaitPowerOn</text></g><g id="isPowerOn"><rect fill="#F1F1F1" height="50" rx="12.5" ry="12.5" style="stroke:#181818;stroke-width:0.5;" width="88" x="445" y="471"/><line style="stroke:#181818;stroke-width:0.5;" x1="445" x2="533" y1="498.6094" y2="498.6094"/><text fill="#000000" font-family="sans-serif" font-size="14" lengthAdjust="spacing" textLength="68" x="455" y="490.5332">isPowerOn</text></g><g id="InitMotion"><rect fill="#F1F1F1" height="50" rx="12.5" ry="12.5" style="stroke:#181818;stroke-width:0.5;" width="80" x="224" y="599"/><line style="stroke:#181818;stroke-width:0.5;" x1="224" x2="304" y1="626.6094" y2="626.6094"/><text fill="#000000" font-family="sans-serif" font-size="14" lengthAdjust="spacing" textLength="60" x="234" y="618.5332">InitMotion</text></g><g id="InitMotionDone"><rect fill="#F1F1F1" height="50" rx="12.5" ry="12.5" style="stroke:#181818;stroke-width:0.5;" width="114" x="271" y="727"/><line style="stroke:#181818;stroke-width:0.5;" x1="271" x2="385" y1="754.6094" y2="754.6094"/><text fill="#000000" font-family="sans-serif" font-size="14" lengthAdjust="spacing" textLength="94" x="281" y="746.5332">InitMotionDone</text></g><g id="Stopping"><rect fill="#F1F1F1" height="50" rx="12.5" ry="12.5" style="stroke:#181818;stroke-width:0.5;" width="76" x="7" y="727"/><line style="stroke:#181818;stroke-width:0.5;" x1="7" x2="83" y1="754.6094" y2="754.6094"/><text fill="#000000" font-family="sans-serif" font-size="14" lengthAdjust="spacing" textLength="56" x="17" y="746.5332">Stopping</text></g><g id="MoveDown"><rect fill="#F1F1F1" height="50" rx="12.5" ry="12.5" style="stroke:#181818;stroke-width:0.5;" width="89" x="333.5" y="855"/><line style="stroke:#181818;stroke-width:0.5;" x1="333.5" x2="422.5" y1="882.6094" y2="882.6094"/><text fill="#000000" font-family="sans-serif" font-size="14" lengthAdjust="spacing" textLength="69" x="343.5" y="874.5332">MoveDown</text></g><g id="MoveDownDone"><rect fill="#F1F1F1" height="50" rx="12.5" ry="12.5" style="stroke:#181818;stroke-width:0.5;" width="123" x="269.5" y="983"/><line style="stroke:#181818;stroke-width:0.5;" x1="269.5" x2="392.5" y1="1010.6094" y2="1010.6094"/><text fill="#000000" font-family="sans-serif" font-size="14" lengthAdjust="spacing" textLength="103" x="279.5" y="1002.5332">MoveDownDone</text></g><g id="CloseGripper"><rect fill="#F1F1F1" height="50" rx="12.5" ry="12.5" style="stroke:#181818;stroke-width:0.5;" width="104" x="210" y="1111"/><line style="stroke:#181818;stroke-width:0.5;" x1="210" x2="314" y1="1138.6094" y2="1138.6094"/><text fill="#000000" font-family="sans-serif" font-size="14" lengthAdjust="spacing" textLength="84" x="220" y="1130.5332">CloseGripper</text></g><g id="GripperClosed"><rect fill="#F1F1F1" height="50" rx="12.5" ry="12.5" style="stroke:#181818;stroke-width:0.5;" width="112" x="125" y="1239"/><line style="stroke:#181818;stroke-width:0.5;" x1="125" x2="237" y1="1266.6094" y2="1266.6094"/><text fill="#000000" font-family="sans-serif" font-size="14" lengthAdjust="spacing" textLength="92" x="135" y="1258.5332">GripperClosed</text></g><g id="ErrorStop"><rect fill="#F1F1F1" height="50" rx="12.5" ry="12.5" style="stroke:#181818;stroke-width:0.5;" width="81" x="547.5" y="727"/><line style="stroke:#181818;stroke-width:0.5;" x1="547.5" x2="628.5" y1="754.6094" y2="754.6094"/><text fill="#000000" font-family="sans-serif" font-size="14" lengthAdjust="spacing" textLength="61" x="557.5" y="746.5332">ErrorStop</text></g><!--MD5=[38f1f8b7f214ff6bc6d4b705f682283d]
link *start to Idle--><g id="link_*start_Idle"><path d="M682,26.01 C682,38.7 682,62.41 682,81.57 " fill="none" id="*start-to-Idle" style="stroke:#181818;stroke-width:1.0;"/><polygon fill="#181818" points="682,86.84,686,77.84,682,81.84,678,77.84,682,86.84" style="stroke:#181818;stroke-width:1.0;"/></g><!--MD5=[13d68646f4e45e0cc0e08da6c4accc29]
link Idle to isPowerOff--><g id="link_Idle_isPowerOff"><path d="M682,137.29 C682,157.95 682,187.67 682,209.65 " fill="none" id="Idle-to-isPowerOff" style="stroke:#181818;stroke-width:1.0;"/><polygon fill="#181818" points="682,214.78,686,205.78,682,209.78,678,205.78,682,214.78" style="stroke:#181818;stroke-width:1.0;"/><text fill="#000000" font-family="sans-serif" font-size="13" lengthAdjust="spacing" textLength="154" x="683" y="181.4951">mcReadStatus is Disabled</text></g><!--MD5=[099b3194b1902467ebf703831376820f]
link isPowerOff to WaitPowerOn--><g id="link_isPowerOff_WaitPowerOn"><path d="M637.85,260.23 C623.79,268.73 609.86,280.2 602,295 C595.1,307.99 595.17,324.23 597.26,338 " fill="none" id="isPowerOff-to-WaitPowerOn" style="stroke:#181818;stroke-width:1.0;"/><polygon fill="#181818" points="598.12,342.95,600.5457,333.4045,597.2772,338.0215,592.6601,334.7531,598.12,342.95" style="stroke:#181818;stroke-width:1.0;"/><text fill="#000000" font-family="sans-serif" font-size="13" lengthAdjust="spacing" textLength="130" x="603" y="309.4951">Power.Enable = TRUE</text></g><!--MD5=[a00b8ac79aa446a0c4493ad98fc1f8e1]
link WaitPowerOn to isPowerOn--><g id="link_WaitPowerOn_isPowerOn"><path d="M551.8,379.34 C527.37,387.04 500.62,400.31 486,423 C477.97,435.46 478.02,451.8 480.38,465.77 " fill="none" id="WaitPowerOn-to-isPowerOn" style="stroke:#181818;stroke-width:1.0;"/><polygon fill="#181818" points="481.35,470.8,483.5825,461.2075,480.4079,465.8896,475.7258,462.7149,481.35,470.8" style="stroke:#181818;stroke-width:1.0;"/><text fill="#000000" font-family="sans-serif" font-size="13" lengthAdjust="spacing" textLength="158" x="487" y="437.4951">mcReadStatus is Standstill</text></g><!--MD5=[68c8096696232fafe88c5c78dfe74dfd]
link isPowerOn to InitMotion--><g id="link_isPowerOn_InitMotion"><path d="M444.91,501.05 C385.2,507.55 283.49,522.56 261,551 C251.67,562.8 251.76,579.4 254.49,593.68 " fill="none" id="isPowerOn-to-InitMotion" style="stroke:#181818;stroke-width:1.0;"/><polygon fill="#181818" points="255.6,598.83,257.6062,589.1876,254.5426,593.9431,249.7871,590.8795,255.6,598.83" style="stroke:#181818;stroke-width:1.0;"/><text fill="#000000" font-family="sans-serif" font-size="13" lengthAdjust="spacing" textLength="201" x="262" y="565.4951">mcMoveAbsolute.Execute = TRUE</text></g><!--MD5=[bf4356e8834da0f56c197498d9f66767]
link InitMotion to InitMotionDone--><g id="link_InitMotion_InitMotionDone"><path d="M228.72,649.1 C213.13,662.83 200.46,680.53 211,697 C223.44,716.45 244.87,728.99 266.01,737.04 " fill="none" id="InitMotion-to-InitMotionDone" style="stroke:#181818;stroke-width:1.0;"/><polygon fill="#181818" points="270.8,738.78,263.7155,731.9382,266.1027,737.0667,260.9742,739.4539,270.8,738.78" style="stroke:#181818;stroke-width:1.0;"/><text fill="#000000" font-family="sans-serif" font-size="13" lengthAdjust="spacing" textLength="183" x="212" y="693.4951">mcMoveAbsolute.Done = TRUE</text></g><!--MD5=[6a12f24b6388e651d2e10b2283fb620f]
link InitMotion to Stopping--><g id="link_InitMotion_Stopping"><path d="M223.72,639.78 C214.94,642.9 205.68,646.12 197,649 C153.77,663.35 136.28,652.82 99,679 C83.12,690.15 69.95,707.42 60.58,722.25 " fill="none" id="InitMotion-to-Stopping" style="stroke:#181818;stroke-width:1.0;"/><polygon fill="#181818" points="57.8,726.76,65.9318,721.2036,60.4269,722.5056,59.1248,717.0007,57.8,726.76" style="stroke:#181818;stroke-width:1.0;"/><text fill="#000000" font-family="sans-serif" font-size="13" lengthAdjust="spacing" textLength="25" x="100" y="693.4951">stop</text></g><!--MD5=[daa2a69f34af5a165b9016a1290e273b]
link Stopping to isPowerOn--><g id="link_Stopping_isPowerOn"><path d="M37.52,726.9 C28.98,694.1 19.65,635.36 49,599 C97.86,538.47 335.26,510.5 439.62,500.97 " fill="none" id="Stopping-to-isPowerOn" style="stroke:#181818;stroke-width:1.0;"/><polygon fill="#181818" points="444.79,500.51,435.4624,497.3485,439.8109,500.9665,436.1928,505.3151,444.79,500.51" style="stroke:#181818;stroke-width:1.0;"/><text fill="#000000" font-family="sans-serif" font-size="13" lengthAdjust="spacing" textLength="155" x="50" y="629.4951">mcReadStatus is Standstil</text></g><!--MD5=[e387ed1ff1e22b39a1595b529ae67cbe]
link InitMotionDone to MoveDown--><g id="link_InitMotionDone_MoveDown"><path d="M337.64,777.29 C345.87,798.04 357.73,827.92 366.46,849.93 " fill="none" id="InitMotionDone-to-MoveDown" style="stroke:#181818;stroke-width:1.0;"/><polygon fill="#181818" points="368.39,854.78,368.7875,844.9392,366.5454,850.1327,361.3518,847.8906,368.39,854.78" style="stroke:#181818;stroke-width:1.0;"/><text fill="#000000" font-family="sans-serif" font-size="13" lengthAdjust="spacing" textLength="201" x="357" y="821.4951">mcMoveAbsolute.Execute = TRUE</text></g><!--MD5=[6b1168fe5fc7526e384e2a7afbe7bdb4]
link MoveDown to MoveDownDone--><g id="link_MoveDown_MoveDownDone"><path d="M371.48,905.28 C367.47,919.37 361.97,937.37 356,953 C352.85,961.23 349.03,969.97 345.33,977.97 " fill="none" id="MoveDown-to-MoveDownDone" style="stroke:#181818;stroke-width:1.0;"/><polygon fill="#181818" points="343.04,982.84,350.4885,976.3964,345.1669,978.3149,343.2484,972.9933,343.04,982.84" style="stroke:#181818;stroke-width:1.0;"/><text fill="#000000" font-family="sans-serif" font-size="13" lengthAdjust="spacing" textLength="183" x="364" y="949.4951">mcMoveAbsolute.Done = TRUE</text></g><!--MD5=[4b2803af3dc3a0c1a03f3f903d6a544c]
link MoveDownDone to CloseGripper--><g id="link_MoveDownDone_CloseGripper"><path d="M317.7,1033.29 C306.29,1054.12 289.83,1084.17 277.77,1106.21 " fill="none" id="MoveDownDone-to-CloseGripper" style="stroke:#181818;stroke-width:1.0;"/><polygon fill="#181818" points="275.26,1110.78,283.1044,1104.8247,277.6712,1106.3998,276.0961,1100.9667,275.26,1110.78" style="stroke:#181818;stroke-width:1.0;"/><text fill="#000000" font-family="sans-serif" font-size="13" lengthAdjust="spacing" textLength="26" x="302" y="1077.4951">Pick</text></g><!--MD5=[7000e81e1baf17dad5ed793bcb34a063]
link CloseGripper to GripperClosed--><g id="link_CloseGripper_GripperClosed"><path d="M246.38,1161.29 C232.94,1182.21 213.51,1212.42 199.33,1234.48 " fill="none" id="CloseGripper-to-GripperClosed" style="stroke:#181818;stroke-width:1.0;"/><polygon fill="#181818" points="196.57,1238.78,204.7932,1233.3597,199.2673,1234.5699,198.0571,1229.0441,196.57,1238.78" style="stroke:#181818;stroke-width:1.0;"/><text fill="#000000" font-family="sans-serif" font-size="13" lengthAdjust="spacing" textLength="40" x="228" y="1205.4951">Picked</text></g><!--MD5=[476f892fde815eb8b841e8a3e37d2ebd]
link GripperClosed to InitMotion--><g id="link_GripperClosed_InitMotion"><path d="M171.98,1238.75 C163.47,1213.66 152,1173.14 152,1137 C152,751 152,751 152,751 C152,708.28 188.4,673.32 219.7,651.15 " fill="none" id="GripperClosed-to-InitMotion" style="stroke:#181818;stroke-width:1.0;"/><polygon fill="#181818" points="223.88,648.25,214.2061,650.0981,219.7732,651.102,218.7693,656.669,223.88,648.25" style="stroke:#181818;stroke-width:1.0;"/><text fill="#000000" font-family="sans-serif" font-size="13" lengthAdjust="spacing" textLength="201" x="153" y="949.4951">mcMoveAbsolute.Execute = TRUE</text></g><!--MD5=[79ec6a55943eda41f7d793a142dd39e2]
link isPowerOff to ErrorStop--><g id="link_isPowerOff_ErrorStop"><path d="M712.63,265.23 C721.85,273.81 731.29,284.06 738,295 C755.49,323.52 760,333.54 760,367 C760,367 760,367 760,625 C760,687.75 684.57,722.65 633.61,739.06 " fill="none" id="isPowerOff-to-ErrorStop" style="stroke:#181818;stroke-width:1.0;"/><polygon fill="#181818" points="628.76,740.6,638.5483,741.6901,633.5258,739.0875,636.1284,734.0649,628.76,740.6" style="stroke:#181818;stroke-width:1.0;"/><text fill="#000000" font-family="sans-serif" font-size="13" lengthAdjust="spacing" textLength="26" x="761" y="501.4951">error</text></g><!--MD5=[27170981883f36a2d0f4fc2987d932a6]
link WaitPowerOn to ErrorStop--><g id="link_WaitPowerOn_ErrorStop"><path d="M631.09,393.01 C638.69,401.64 646.01,411.98 650,423 C652.72,430.52 650.74,433.03 650,441 C640.28,545.56 610.46,666.99 596.01,721.66 " fill="none" id="WaitPowerOn-to-ErrorStop" style="stroke:#181818;stroke-width:1.0;"/><polygon fill="#181818" points="594.66,726.74,600.8355,719.0677,595.943,721.9074,593.1033,717.0149,594.66,726.74" style="stroke:#181818;stroke-width:1.0;"/><text fill="#000000" font-family="sans-serif" font-size="13" lengthAdjust="spacing" textLength="26" x="635" y="565.4951">error</text></g><!--MD5=[bd55f69346a616f4db605b06ca3d3e3d]
link isPowerOn to ErrorStop--><g id="link_isPowerOn_ErrorStop"><path d="M490.29,521.06 C492.63,551.8 499.13,606.16 517,649 C528.27,676.03 547.55,703.07 563.18,722.51 " fill="none" id="isPowerOn-to-ErrorStop" style="stroke:#181818;stroke-width:1.0;"/><polygon fill="#181818" points="566.66,726.79,564.1102,717.2769,563.5157,722.9024,557.8901,722.3079,566.66,726.79" style="stroke:#181818;stroke-width:1.0;"/><text fill="#000000" font-family="sans-serif" font-size="13" lengthAdjust="spacing" textLength="26" x="518" y="629.4951">error</text></g><!--MD5=[c6319e3cd705dc3692daaa18daef7072]
link ErrorStop to isPowerOn--><g id="link_ErrorStop_isPowerOn"><path d="M583.96,726.91 C578.35,696.37 566.85,642.47 549,599 C539.62,576.15 533.52,572.29 521,551 C516.15,542.76 510.87,533.82 506.02,525.63 " fill="none" id="ErrorStop-to-isPowerOn" style="stroke:#181818;stroke-width:1.0;"/><polygon fill="#181818" points="503.37,521.17,504.5322,530.95,505.9257,525.4675,511.4082,526.861,503.37,521.17" style="stroke:#181818;stroke-width:1.0;"/><text fill="#000000" font-family="sans-serif" font-size="13" lengthAdjust="spacing" textLength="29" x="567" y="629.4951">reset</text></g><!--MD5=[7c15d385afd3aca99c597b2e78710147]
link InitMotion to ErrorStop--><g id="link_InitMotion_ErrorStop"><path d="M304.25,639.94 C331.52,650.32 368.23,664.78 400,679 C416.33,686.31 419.54,689.99 436,697 C471.22,711.99 512.16,726.37 542.68,736.52 " fill="none" id="InitMotion-to-ErrorStop" style="stroke:#181818;stroke-width:1.0;"/><polygon fill="#181818" points="547.48,738.11,540.2068,731.4692,542.7366,736.5289,537.6769,739.0587,547.48,738.11" style="stroke:#181818;stroke-width:1.0;"/><text fill="#000000" font-family="sans-serif" font-size="13" lengthAdjust="spacing" textLength="26" x="437" y="693.4951">error</text></g><!--MD5=[55dc712332313ea9a96cc15026a974e4]
@startuml

[*] - -> Idle
Idle - -> isPowerOff : mcReadStatus is Disabled
isPowerOff - -> WaitPowerOn : Power.Enable = TRUE
WaitPowerOn - -> isPowerOn : mcReadStatus is Standstill
isPowerOn - -> InitMotion : mcMoveAbsolute.Execute = TRUE
InitMotion - -> InitMotionDone : mcMoveAbsolute.Done = TRUE
InitMotion - -> Stopping : stop
Stopping - -> isPowerOn : mcReadStatus is Standstil
InitMotionDone - -> MoveDown : mcMoveAbsolute.Execute = TRUE
MoveDown - -> MoveDownDone : mcMoveAbsolute.Done = TRUE
MoveDownDone - -> CloseGripper : Pick
CloseGripper - -> GripperClosed : Picked
GripperClosed - -> InitMotion : mcMoveAbsolute.Execute = TRUE

isPowerOff - -> ErrorStop : error
WaitPowerOn - -> ErrorStop : error
isPowerOn - -> ErrorStop : error
InitMotion - -> ErrorStop : error

ErrorStop - -> isPowerOn : reset

@enduml

PlantUML version 1.2022.7(Mon Aug 22 19:01:30 CEST 2022)
(GPL source distribution)
Java Runtime: Java(TM) SE Runtime Environment
JVM: Java HotSpot(TM) 64-Bit Server VM
Default Encoding: Cp1252
Language: en
Country: US
--></g></svg>