<?xml version="1.0" encoding="us-ascii" standalone="no"?><svg xmlns="http://www.w3.org/2000/svg" xmlns:xlink="http://www.w3.org/1999/xlink" contentStyleType="text/css" height="493px" preserveAspectRatio="none" style="width:555px;height:493px;background:#FFFFFF;" version="1.1" viewBox="0 0 555 493" width="555px" zoomAndPan="magnify"><defs/><g><ellipse cx="418.5" cy="16" fill="#222222" rx="10" ry="10" style="stroke:#222222;stroke-width:1.0;"/><g id="Idle"><rect fill="#F1F1F1" height="50" rx="12.5" ry="12.5" style="stroke:#181818;stroke-width:0.5;" width="50" x="393.5" y="87"/><line style="stroke:#181818;stroke-width:0.5;" x1="393.5" x2="443.5" y1="114.6094" y2="114.6094"/><text fill="#000000" font-family="sans-serif" font-size="14" lengthAdjust="spacing" textLength="22" x="407.5" y="106.5332">Idle</text></g><g id="SelectNextCorner"><rect fill="#F1F1F1" height="50" rx="12.5" ry="12.5" style="stroke:#181818;stroke-width:0.5;" width="130" x="353.5" y="198"/><line style="stroke:#181818;stroke-width:0.5;" x1="353.5" x2="483.5" y1="225.6094" y2="225.6094"/><text fill="#000000" font-family="sans-serif" font-size="14" lengthAdjust="spacing" textLength="110" x="363.5" y="217.5332">SelectNextCorner</text></g><g id="MoveToCorner"><rect fill="#F1F1F1" height="50" rx="12.5" ry="12.5" style="stroke:#181818;stroke-width:0.5;" width="115" x="361" y="326"/><line style="stroke:#181818;stroke-width:0.5;" x1="361" x2="476" y1="353.6094" y2="353.6094"/><text fill="#000000" font-family="sans-serif" font-size="14" lengthAdjust="spacing" textLength="95" x="371" y="345.5332">MoveToCorner</text></g><g id="MoveToCornerDone"><rect fill="#F1F1F1" height="50" rx="12.5" ry="12.5" style="stroke:#181818;stroke-width:0.5;" width="149" x="399" y="437"/><line style="stroke:#181818;stroke-width:0.5;" x1="399" x2="548" y1="464.6094" y2="464.6094"/><text fill="#000000" font-family="sans-serif" font-size="14" lengthAdjust="spacing" textLength="129" x="409" y="456.5332">MoveToCornerDone</text></g><g id="WaitStopCommand"><rect fill="#F1F1F1" height="50" rx="12.5" ry="12.5" style="stroke:#181818;stroke-width:0.5;" width="141" x="7" y="326"/><line style="stroke:#181818;stroke-width:0.5;" x1="7" x2="148" y1="353.6094" y2="353.6094"/><text fill="#000000" font-family="sans-serif" font-size="14" lengthAdjust="spacing" textLength="121" x="17" y="345.5332">WaitStopCommand</text></g><g id="elem_GMN14"><path d="M183.5,329.5 L183.5,347 L148.02,351 L183.5,355 L183.5,372.2031 A0,0 0 0 0 183.5,372.2031 L325.5,372.2031 A0,0 0 0 0 325.5,372.2031 L325.5,339.5 L315.5,329.5 L183.5,329.5 A0,0 0 0 0 183.5,329.5 " fill="#FEFFDD" style="stroke:#181818;stroke-width:0.5;"/><path d="M315.5,329.5 L315.5,339.5 L325.5,339.5 L315.5,329.5 " fill="#FEFFDD" style="stroke:#181818;stroke-width:0.5;"/><text fill="#000000" font-family="sans-serif" font-size="13" lengthAdjust="spacing" textLength="117" x="189.5" y="347.9951">Could be a SC to go</text><text fill="#000000" font-family="sans-serif" font-size="13" lengthAdjust="spacing" textLength="109" x="189.5" y="364.3467">to State Complete;</text></g><!--link *start* to Idle--><g id="link_*start*_Idle"><path d="M418.5,26.01 C418.5,39.89 418.5,60.97 418.5,80.84 " fill="none" id="*start*-to-Idle" style="stroke:#181818;stroke-width:1.0;"/><polygon fill="#181818" points="418.5,86.84,422.5,77.84,418.5,81.84,414.5,77.84,418.5,86.84" style="stroke:#181818;stroke-width:1.0;"/></g><!--link Idle to SelectNextCorner--><g id="link_Idle_SelectNextCorner"><path d="M418.5,137.19 C418.5,155.25 418.5,173.83 418.5,191.88 " fill="none" id="Idle-to-SelectNextCorner" style="stroke:#181818;stroke-width:1.0;"/><polygon fill="#181818" points="418.5,197.88,422.5,188.88,418.5,192.88,414.5,188.88,418.5,197.88" style="stroke:#181818;stroke-width:1.0;"/></g><!--link SelectNextCorner to MoveToCorner--><g id="link_SelectNextCorner_MoveToCorner"><path d="M418.5,248.29 C418.5,270.61 418.5,297.49 418.5,319.78 " fill="none" id="SelectNextCorner-to-MoveToCorner" style="stroke:#181818;stroke-width:1.0;"/><polygon fill="#181818" points="418.5,325.78,422.5,316.78,418.5,320.78,414.5,316.78,418.5,325.78" style="stroke:#181818;stroke-width:1.0;"/><text fill="#000000" font-family="sans-serif" font-size="13" lengthAdjust="spacing" textLength="69" x="419.5" y="292.4951">NotFinished</text></g><!--link MoveToCorner to MoveToCornerDone--><g id="link_MoveToCorner_MoveToCornerDone"><path d="M430.71,376.19 C439.82,394.25 449.5166,413.4736 458.6266,431.5236 " fill="none" id="MoveToCorner-to-MoveToCornerDone" style="stroke:#181818;stroke-width:1.0;"/><polygon fill="#181818" points="461.33,436.88,460.8458,427.0431,459.0771,432.4163,453.7039,430.6476,461.33,436.88" style="stroke:#181818;stroke-width:1.0;"/></g><!--link MoveToCornerDone to SelectNextCorner--><g id="link_MoveToCornerDone_SelectNextCorner"><path d="M485.18,436.9 C501.11,400.31 524.72,329.58 497.5,278 C491.14,265.95 485.6619,259.5258 474.4719,251.6758 " fill="none" id="MoveToCornerDone-to-SelectNextCorner" style="stroke:#181818;stroke-width:1.0;"/><polygon fill="#181818" points="469.56,248.23,474.6306,256.6733,473.6532,251.1015,479.225,250.1241,469.56,248.23" style="stroke:#181818;stroke-width:1.0;"/></g><!--link SelectNextCorner to WaitStopCommand--><g id="link_SelectNextCorner_WaitStopCommand"><path d="M353.16,248.14 C292.62,270.51 208.7081,301.5204 148.2481,323.8604 " fill="none" id="SelectNextCorner-to-WaitStopCommand" style="stroke:#181818;stroke-width:1.0;"/><polygon fill="#181818" points="142.62,325.94,152.4485,326.5727,147.3101,324.207,149.6757,319.0686,142.62,325.94" style="stroke:#181818;stroke-width:1.0;"/><text fill="#000000" font-family="sans-serif" font-size="13" lengthAdjust="spacing" textLength="83" x="269.5" y="292.4951">NoMoreCorner</text></g><!--SRC=[ZOsn3i8m34JtV8LdfFu0I2n1I0pj4YG6n138qKPAuoeOnEUJH5tQ2G-MVNxdksvkr3HxEha0LLhT308Uqk4hcbD4KcgjLApb3yuy2rlgM8u- -jS0fzJYjeOF7B54Yl9dTA4kreiHdZIFeuskXhUSC7iY2oZvVX3YvnfMb4lpEpYwWomPJSBKCzL37etORC_q523OAUI0yb7z0000]--></g></svg>