<?xml version="1.0" encoding="us-ascii" standalone="no"?><svg xmlns="http://www.w3.org/2000/svg" xmlns:xlink="http://www.w3.org/1999/xlink" contentStyleType="text/css" height="833px" preserveAspectRatio="none" style="width:617px;height:833px;background:#FFFFFF;" version="1.1" viewBox="0 0 617 833" width="617px" zoomAndPan="magnify"><defs/><g><ellipse cx="553" cy="582" fill="#222222" rx="10" ry="10" style="stroke:#222222;stroke-width:1.0;"/><g id="Idle"><rect fill="#F1F1F1" height="50" rx="12.5" ry="12.5" style="stroke:#181818;stroke-width:0.5;" width="50" x="528" y="667"/><line style="stroke:#181818;stroke-width:0.5;" x1="528" x2="578" y1="694.6094" y2="694.6094"/><text fill="#000000" font-family="sans-serif" font-size="14" lengthAdjust="spacing" textLength="22" x="542" y="686.5332">Idle</text></g><g id="MoveCornerOne"><rect fill="#F1F1F1" height="50" rx="12.5" ry="12.5" style="stroke:#181818;stroke-width:0.5;" width="125" x="412.5" y="777"/><line style="stroke:#181818;stroke-width:0.5;" x1="412.5" x2="537.5" y1="804.6094" y2="804.6094"/><text fill="#000000" font-family="sans-serif" font-size="14" lengthAdjust="spacing" textLength="105" x="422.5" y="796.5332">MoveCornerOne</text></g><g id="MoveCornerOneDone"><rect fill="#F1F1F1" height="50" rx="12.5" ry="12.5" style="stroke:#181818;stroke-width:0.5;" width="159" x="205.5" y="7"/><line style="stroke:#181818;stroke-width:0.5;" x1="205.5" x2="364.5" y1="34.6094" y2="34.6094"/><text fill="#000000" font-family="sans-serif" font-size="14" lengthAdjust="spacing" textLength="139" x="215.5" y="26.5332">MoveCornerOneDone</text></g><g id="elem_GMN9"><path d="M400,19 L400,28 L364.92,32 L400,36 L400,45.3516 A0,0 0 0 0 400,45.3516 L610,45.3516 A0,0 0 0 0 610,45.3516 L610,29 L600,19 L400,19 A0,0 0 0 0 400,19 " fill="#FEFFDD" style="stroke:#181818;stroke-width:0.5;"/><path d="M600,19 L600,29 L610,29 L600,19 " fill="#FEFFDD" style="stroke:#181818;stroke-width:0.5;"/><text fill="#000000" font-family="sans-serif" font-size="13" lengthAdjust="spacing" textLength="189" x="406" y="37.4951">fbOpenGripper.Execute:= TRUE;</text></g><g id="MoveCornerTwo"><rect fill="#F1F1F1" height="50" rx="12.5" ry="12.5" style="stroke:#181818;stroke-width:0.5;" width="124" x="166" y="117"/><line style="stroke:#181818;stroke-width:0.5;" x1="166" x2="290" y1="144.6094" y2="144.6094"/><text fill="#000000" font-family="sans-serif" font-size="14" lengthAdjust="spacing" textLength="104" x="176" y="136.5332">MoveCornerTwo</text></g><g id="MoveCornerTwoDone"><rect fill="#F1F1F1" height="50" rx="12.5" ry="12.5" style="stroke:#181818;stroke-width:0.5;" width="158" x="16" y="227"/><line style="stroke:#181818;stroke-width:0.5;" x1="16" x2="174" y1="254.6094" y2="254.6094"/><text fill="#000000" font-family="sans-serif" font-size="14" lengthAdjust="spacing" textLength="138" x="26" y="246.5332">MoveCornerTwoDone</text></g><g id="elem_GMN16"><path d="M209,239 L209,248 L174.06,252 L209,256 L209,265.3516 A0,0 0 0 0 209,265.3516 L421,265.3516 A0,0 0 0 0 421,265.3516 L421,249 L411,239 L209,239 A0,0 0 0 0 209,239 " fill="#FEFFDD" style="stroke:#181818;stroke-width:0.5;"/><path d="M411,239 L411,249 L421,249 L411,239 " fill="#FEFFDD" style="stroke:#181818;stroke-width:0.5;"/><text fill="#000000" font-family="sans-serif" font-size="13" lengthAdjust="spacing" textLength="191" x="215" y="257.4951">fbCloseGripper.Execute:= TRUE;</text></g><g id="MoveCornerThree"><rect fill="#F1F1F1" height="50" rx="12.5" ry="12.5" style="stroke:#181818;stroke-width:0.5;" width="136" x="25" y="337"/><line style="stroke:#181818;stroke-width:0.5;" x1="25" x2="161" y1="364.6094" y2="364.6094"/><text fill="#000000" font-family="sans-serif" font-size="14" lengthAdjust="spacing" textLength="116" x="35" y="356.5332">MoveCornerThree</text></g><g id="MoveCornerThreeDone"><rect fill="#F1F1F1" height="50" rx="12.5" ry="12.5" style="stroke:#181818;stroke-width:0.5;" width="170" x="7" y="447"/><line style="stroke:#181818;stroke-width:0.5;" x1="7" x2="177" y1="474.6094" y2="474.6094"/><text fill="#000000" font-family="sans-serif" font-size="14" lengthAdjust="spacing" textLength="150" x="17" y="466.5332">MoveCornerThreeDone</text></g><g id="elem_GMN23"><path d="M212,459 L212,468 L177.25,472 L212,476 L212,485.3516 A0,0 0 0 0 212,485.3516 L422,485.3516 A0,0 0 0 0 422,485.3516 L422,469 L412,459 L212,459 A0,0 0 0 0 212,459 " fill="#FEFFDD" style="stroke:#181818;stroke-width:0.5;"/><path d="M412,459 L412,469 L422,469 L412,459 " fill="#FEFFDD" style="stroke:#181818;stroke-width:0.5;"/><text fill="#000000" font-family="sans-serif" font-size="13" lengthAdjust="spacing" textLength="189" x="218" y="477.4951">fbOpenGripper.Execute:= TRUE;</text></g><g id="MoveCornerFour"><rect fill="#F1F1F1" height="50" rx="12.5" ry="12.5" style="stroke:#181818;stroke-width:0.5;" width="128" x="29" y="557"/><line style="stroke:#181818;stroke-width:0.5;" x1="29" x2="157" y1="584.6094" y2="584.6094"/><text fill="#000000" font-family="sans-serif" font-size="14" lengthAdjust="spacing" textLength="108" x="39" y="576.5332">MoveCornerFour</text></g><g id="MoveCornerFourDone"><rect fill="#F1F1F1" height="50" rx="12.5" ry="12.5" style="stroke:#181818;stroke-width:0.5;" width="162" x="13" y="667"/><line style="stroke:#181818;stroke-width:0.5;" x1="13" x2="175" y1="694.6094" y2="694.6094"/><text fill="#000000" font-family="sans-serif" font-size="14" lengthAdjust="spacing" textLength="142" x="23" y="686.5332">MoveCornerFourDone</text></g><g id="elem_GMN30"><path d="M210,679 L210,688 L175.08,692 L210,696 L210,705.3516 A0,0 0 0 0 210,705.3516 L422,705.3516 A0,0 0 0 0 422,705.3516 L422,689 L412,679 L210,679 A0,0 0 0 0 210,679 " fill="#FEFFDD" style="stroke:#181818;stroke-width:0.5;"/><path d="M412,679 L412,689 L422,689 L412,679 " fill="#FEFFDD" style="stroke:#181818;stroke-width:0.5;"/><text fill="#000000" font-family="sans-serif" font-size="13" lengthAdjust="spacing" textLength="191" x="216" y="697.4951">fbCloseGripper.Execute:= TRUE;</text></g><!--link *start* to Idle--><g id="link_*start*_Idle"><path d="M553,592.21 C553,608.53 553,637.04 553,660.63 " fill="none" id="*start*-to-Idle" style="stroke:#181818;stroke-width:1.0;"/><polygon fill="#181818" points="553,666.63,557,657.63,553,661.63,549,657.63,553,666.63" style="stroke:#181818;stroke-width:1.0;"/></g><!--link Idle to MoveCornerOne--><g id="link_Idle_MoveCornerOne"><path d="M535.5,717.24 C522.65,735.02 508.7935,754.2164 495.9635,771.9764 " fill="none" id="Idle-to-MoveCornerOne" style="stroke:#181818;stroke-width:1.0;"/><polygon fill="#181818" points="492.45,776.84,500.9627,771.8869,495.378,772.787,494.4779,767.2022,492.45,776.84" style="stroke:#181818;stroke-width:1.0;"/></g><!--link MoveCornerOne to MoveCornerOneDone--><g id="link_MoveCornerOne_MoveCornerOneDone"><path d="M475,776.81 C475,736.58 475,653.4 475,583 C475,251 475,251 475,251 C475,162.14 389.2652,95.1084 333.2052,60.2484 " fill="none" id="MoveCornerOne-to-MoveCornerOneDone" style="stroke:#181818;stroke-width:1.0;"/><polygon fill="#181818" points="328.11,57.08,333.6406,65.2294,332.356,59.7203,337.8651,58.4358,328.11,57.08" style="stroke:#181818;stroke-width:1.0;"/></g><!--link MoveCornerOneDone to MoveCornerTwo--><g id="link_MoveCornerOneDone_MoveCornerTwo"><path d="M272.21,57.24 C262.82,75.02 252.9321,93.7745 243.5521,111.5345 " fill="none" id="MoveCornerOneDone-to-MoveCornerTwo" style="stroke:#181818;stroke-width:1.0;"/><polygon fill="#181818" points="240.75,116.84,248.4902,110.7498,243.0851,112.4188,241.4162,107.0137,240.75,116.84" style="stroke:#181818;stroke-width:1.0;"/></g><!--link MoveCornerTwo to MoveCornerTwoDone--><g id="link_MoveCornerTwo_MoveCornerTwoDone"><path d="M198.15,167.24 C176.25,185.02 151.2885,205.2987 129.4085,223.0587 " fill="none" id="MoveCornerTwo-to-MoveCornerTwoDone" style="stroke:#181818;stroke-width:1.0;"/><polygon fill="#181818" points="124.75,226.84,134.2586,224.2737,128.6321,223.6889,129.2169,218.0624,124.75,226.84" style="stroke:#181818;stroke-width:1.0;"/></g><!--link MoveCornerTwoDone to MoveCornerThree--><g id="link_MoveCornerTwoDone_MoveCornerThree"><path d="M94.55,277.24 C94.22,295.02 93.8915,313.081 93.5615,330.841 " fill="none" id="MoveCornerTwoDone-to-MoveCornerThree" style="stroke:#181818;stroke-width:1.0;"/><polygon fill="#181818" points="93.45,336.84,97.6165,327.9159,93.5429,331.8409,89.6179,327.7672,93.45,336.84" style="stroke:#181818;stroke-width:1.0;"/></g><!--link MoveCornerThree to MoveCornerThreeDone--><g id="link_MoveCornerThree_MoveCornerThreeDone"><path d="M92.78,387.24 C92.61,405.02 92.4474,423.0803 92.2774,440.8403 " fill="none" id="MoveCornerThree-to-MoveCornerThreeDone" style="stroke:#181818;stroke-width:1.0;"/><polygon fill="#181818" points="92.22,446.84,96.306,437.8787,92.2679,441.8402,88.3063,437.8021,92.22,446.84" style="stroke:#181818;stroke-width:1.0;"/></g><!--link MoveCornerThreeDone to MoveCornerFour--><g id="link_MoveCornerThreeDone_MoveCornerFour"><path d="M92.22,497.24 C92.39,515.02 92.5526,533.0803 92.7226,550.8403 " fill="none" id="MoveCornerThreeDone-to-MoveCornerFour" style="stroke:#181818;stroke-width:1.0;"/><polygon fill="#181818" points="92.78,556.84,96.6937,547.8021,92.7321,551.8402,88.694,547.8787,92.78,556.84" style="stroke:#181818;stroke-width:1.0;"/></g><!--link MoveCornerFour to MoveCornerFourDone--><g id="link_MoveCornerFour_MoveCornerFourDone"><path d="M93.22,607.24 C93.39,625.02 93.5526,643.0803 93.7226,660.8403 " fill="none" id="MoveCornerFour-to-MoveCornerFourDone" style="stroke:#181818;stroke-width:1.0;"/><polygon fill="#181818" points="93.78,666.84,97.6937,657.8021,93.7321,661.8402,89.694,657.8787,93.78,666.84" style="stroke:#181818;stroke-width:1.0;"/></g><!--link MoveCornerFourDone to MoveCornerOne--><g id="link_MoveCornerFourDone_MoveCornerOne"><path d="M175.27,716.04 C246.18,736.14 341.8374,763.2537 406.6074,781.6137 " fill="none" id="MoveCornerFourDone-to-MoveCornerOne" style="stroke:#181818;stroke-width:1.0;"/><polygon fill="#181818" points="412.38,783.25,404.812,776.9472,407.5695,781.8864,402.6303,784.6439,412.38,783.25" style="stroke:#181818;stroke-width:1.0;"/></g><!--SRC=[YzQALT3LjLFmJCb9vG8HO9vlVbcgStvHNcgHVrug5meFKzub7wWcBxyaLQ4eCpsZH24_3Oky0X2a9VaNfEQv5sKM5AGMwRbMf2QNbgHQsIg418MwMdEbvgKeW4pXuiBGZMPdI7a-5meFKnwlcs3o43Svv-GNfvBYAAXsT4ipYbAHWmhCnwO6lzFWAiWBCBX-D9lTyakBk52vM5JWTHfS0Pd11jEFcO00]--></g></svg>